PathFileType	4	(X/Y/Z)	D:\TRACE\v60_Jaco2_6-2-23\BothDRS_Motion3_1-v60.trc
DataRate	CameraRate	NumFrames	NumMarkers	Units	OrigDataRate	OrigDataStartFrame	OrigNumFrames
100.00	100.00	      17	9	mm	100.00	1751	      7000
Frame#	Time	front left toe			Front right toe			aft left toe			aft right toe			Arm			FL body			FR body			AL Body			AR Body			
		X1	Y1	Z1	X2	Y2	Z2	X3	Y3	Z3	X4	Y4	Z4	X5	Y5	Z5	X6	Y6	Z6	X7	Y7	Z7	X8	Y8	Z8	X9	Y9	Z9	

1751	17.500	-186.92433	110.05519	-292.28067	187.54938	12.75348	-312.31979	-171.67017	16.01117	320.11835	184.22121	111.32337	330.43124	43.69637	1145.88867	-688.41364	-78.52362	514.85919	-468.04922	80.26472	511.90237	-470.19955	-60.32478	561.52631	474.79410	91.11980	549.36798	473.05682	
1752	17.510	-186.41986	102.22185	-291.84882	187.67770	12.81342	-312.10965	-171.73596	15.92597	320.06897	184.04059	103.00200	331.25012	44.44975	1146.19995	-687.69452	-77.82145	514.96667	-467.71204	80.74810	511.97025	-469.67221	-61.28040	561.30029	475.18100	90.13512	549.21118	473.74765	
1753	17.520	-186.35373	94.47027	-291.56937	187.63435	12.69598	-312.05319	-171.81442	15.85835	320.00385	183.89006	94.52382	332.26291	45.19341	1146.28320	-687.05310	-77.57135	515.18744	-467.62924	81.34915	511.93515	-469.08295	-62.04802	560.91046	475.50803	90.62372	548.46857	474.19437	
1754	17.530	-185.79831	86.39052	-291.34927	187.27261	12.45032	-312.15225	-171.84048	15.78505	319.97995	182.95641	85.75582	333.16379	45.93001	1146.07129	-686.52551	-77.08588	515.20752	-467.29984	81.77643	512.04993	-468.62744	-62.99093	560.61627	475.84006	89.73867	548.09088	474.87277	
1755	17.540	-185.26149	77.92924	-291.10980	187.43353	12.49276	-312.06049	-171.85458	15.73913	319.90231	182.56085	76.85140	334.18579	46.68130	1145.86487	-686.06628	-77.04295	515.42670	-467.34891	82.08981	512.14746	-468.18420	-63.44204	560.50128	476.14999	89.27016	547.90381	475.47632	
1756	17.550	-184.72861	68.76628	-290.41168	187.39761	12.43289	-311.99066	-171.88553	15.74451	319.85489	182.07437	67.64006	335.22922	47.35159	1145.78662	-685.68073	-76.57024	515.41089	-466.93286	82.41050	512.02332	-467.70419	-64.40134	560.46234	476.47284	87.06177	547.85846	475.94208	
1757	17.560	-184.97597	59.87630	-289.72403	187.51141	12.35587	-311.87885	-171.92148	15.73487	319.89511	181.40614	59.22646	335.44208	48.38155	1145.59973	-685.23413	-76.12157	515.16290	-466.50113	82.83400	511.85129	-467.04092	-65.19064	560.27020	476.72681	87.76918	547.41327	476.28427	
1758	17.570	-185.35579	50.50326	-288.81366	187.57796	12.28144	-311.78094	-171.93109	15.65752	319.94995	181.14905	50.79065	335.80447	49.39249	1145.58838	-684.84296	-75.83671	515.03070	-466.23950	83.01214	511.76334	-466.78131	-65.92934	559.88055	476.86755	87.06699	547.18866	476.61914	
1759	17.580	-185.59962	41.73166	-287.52933	187.70885	12.12543	-311.69299	-171.95680	15.63622	319.85986	181.10843	42.72444	335.62952	50.27183	1145.59387	-684.31061	-75.53720	514.87555	-465.99240	83.14512	511.71469	-466.46283	-66.29907	559.75836	477.13977	86.26233	547.03564	476.99231	
1760	17.590	-186.41818	34.17236	-286.88608	187.68613	12.02773	-311.70432	-172.00705	15.65749	319.83096	181.21382	35.42538	335.52771	51.21237	1145.60181	-683.82971	-75.28386	514.87231	-465.79752	82.52033	511.77478	-466.10046	-66.89645	559.68872	477.43289	85.82880	546.83539	477.34561	
1761	17.600	-186.97107	27.40046	-286.50970	187.79414	11.99957	-311.61578	-172.00227	15.70422	319.76013	181.43205	28.30585	335.27753	51.95886	1145.64221	-683.46881	-75.18066	514.80371	-465.69653	82.55621	511.87405	-465.65207	-67.53232	559.57727	477.69397	85.64381	546.70667	477.65289	
1762	17.610	-187.27682	21.19975	-286.38184	187.80876	11.92937	-311.60248	-171.99460	15.70439	319.75714	181.82854	22.76214	335.40048	52.40553	1145.68665	-683.22247	-75.23952	514.96332	-465.81390	82.82730	511.72107	-465.33395	-68.12431	559.48950	477.81799	85.09553	546.52643	478.01721	
1763	17.620	-188.17345	15.62466	-286.89969	187.82990	11.92414	-311.61899	-172.03719	15.71057	319.71198	181.47141	18.52073	334.67313	52.54006	1145.59119	-683.00964	-75.00342	515.11499	-465.71155	83.54559	511.19516	-464.94479	-68.67401	559.22485	477.89108	84.20588	546.32819	478.20450	
1764	17.630	-188.82808	14.34165	-289.02557	187.80377	11.89499	-311.54236	-172.02669	15.79430	319.68869	181.89606	19.10341	333.81009	52.68604	1145.35779	-682.85101	-74.86810	515.17200	-465.58182	83.67440	511.13782	-464.76190	-69.15001	559.16772	478.01141	82.29530	546.62134	478.34641	
1765	17.640	-189.40878	14.70560	-289.47989	187.87170	11.80066	-311.50479	-171.95485	15.93430	319.65894	182.21855	17.11923	333.74384	52.93010	1145.25964	-682.78729	-74.48082	515.31641	-465.26132	83.96278	511.25638	-464.34180	-69.48898	560.13055	478.23581	83.20534	547.22888	478.96597	
1766	17.650	-189.07773	12.95700	-288.04532	187.72110	12.24866	-311.74597	-171.98102	16.65511	319.95435	182.12007	17.18100	333.74527	53.18760	1145.52173	-683.15985	-73.94977	515.48193	-464.88492	83.87613	511.94781	-463.95856	-70.13330	561.37048	478.39899	82.80804	548.82123	479.11426	
1767	17.660	-189.00186	12.12796	-287.38843	186.85675	15.56262	-311.43655	-171.45908	19.59019	320.22519	182.01038	16.91920	334.88690	53.77951	1145.85144	-683.59265	-73.64015	516.05652	-464.61646	85.02885	512.29059	-463.95215	-71.01864	562.13934	478.63452	80.96076	549.61951	479.51682	
